<svg id="visual" viewBox="0 0 900 300" width="900" height="300" xmlns="http://www.w3.org/2000/svg" xmlns:xlink="http://www.w3.org/1999/xlink" version="1.1"><rect x="0" y="0" width="900" height="300" fill="#001220"></rect><path d="M0 78L21.5 82.2C43 86.3 86 94.7 128.8 95C171.7 95.3 214.3 87.7 257.2 88.2C300 88.7 343 97.3 385.8 102.7C428.7 108 471.3 110 514.2 108.2C557 106.3 600 100.7 642.8 99.2C685.7 97.7 728.3 100.3 771.2 97.8C814 95.3 857 87.7 878.5 83.8L900 80L900 0L878.5 0C857 0 814 0 771.2 0C728.3 0 685.7 0 642.8 0C600 0 557 0 514.2 0C471.3 0 428.7 0 385.8 0C343 0 300 0 257.2 0C214.3 0 171.7 0 128.8 0C86 0 43 0 21.5 0L0 0Z" fill="#c62368"></path><path d="M0 66L21.5 71.5C43 77 86 88 128.8 90.2C171.7 92.3 214.3 85.7 257.2 79C300 72.3 343 65.7 385.8 67.5C428.7 69.3 471.3 79.7 514.2 86.5C557 93.3 600 96.7 642.8 95.5C685.7 94.3 728.3 88.7 771.2 82.8C814 77 857 71 878.5 68L900 65L900 0L878.5 0C857 0 814 0 771.2 0C728.3 0 685.7 0 642.8 0C600 0 557 0 514.2 0C471.3 0 428.7 0 385.8 0C343 0 300 0 257.2 0C214.3 0 171.7 0 128.8 0C86 0 43 0 21.5 0L0 0Z" fill="#d53867"></path><path d="M0 78L21.5 76.3C43 74.7 86 71.3 128.8 69C171.7 66.7 214.3 65.3 257.2 62.3C300 59.3 343 54.7 385.8 51.3C428.7 48 471.3 46 514.2 48.8C557 51.7 600 59.3 642.8 63.8C685.7 68.3 728.3 69.7 771.2 69.5C814 69.3 857 67.7 878.5 66.8L900 66L900 0L878.5 0C857 0 814 0 771.2 0C728.3 0 685.7 0 642.8 0C600 0 557 0 514.2 0C471.3 0 428.7 0 385.8 0C343 0 300 0 257.2 0C214.3 0 171.7 0 128.8 0C86 0 43 0 21.5 0L0 0Z" fill="#e34c67"></path><path d="M0 56L21.5 54.3C43 52.7 86 49.3 128.8 48.7C171.7 48 214.3 50 257.2 48.3C300 46.7 343 41.3 385.8 40.7C428.7 40 471.3 44 514.2 47.5C557 51 600 54 642.8 55.5C685.7 57 728.3 57 771.2 54.8C814 52.7 857 48.3 878.5 46.2L900 44L900 0L878.5 0C857 0 814 0 771.2 0C728.3 0 685.7 0 642.8 0C600 0 557 0 514.2 0C471.3 0 428.7 0 385.8 0C343 0 300 0 257.2 0C214.3 0 171.7 0 128.8 0C86 0 43 0 21.5 0L0 0Z" fill="#ef5f67"></path><path d="M0 27L21.5 28.2C43 29.3 86 31.7 128.8 30.3C171.7 29 214.3 24 257.2 20.5C300 17 343 15 385.8 17.5C428.7 20 471.3 27 514.2 27.3C557 27.7 600 21.3 642.8 18.7C685.7 16 728.3 17 771.2 19.3C814 21.7 857 25.3 878.5 27.2L900 29L900 0L878.5 0C857 0 814 0 771.2 0C728.3 0 685.7 0 642.8 0C600 0 557 0 514.2 0C471.3 0 428.7 0 385.8 0C343 0 300 0 257.2 0C214.3 0 171.7 0 128.8 0C86 0 43 0 21.5 0L0 0Z" fill="#fa7268"></path></svg>