<svg id="visual" viewBox="0 0 900 300" width="900" height="300" xmlns="http://www.w3.org/2000/svg" xmlns:xlink="http://www.w3.org/1999/xlink" version="1.1"><rect x="0" y="0" width="900" height="300" fill="#001220"></rect><path d="M0 108L11.5 109.2C23 110.3 46 112.7 69 112.3C92 112 115 109 138.2 105.3C161.3 101.7 184.7 97.3 207.8 100.2C231 103 254 113 277 122.3C300 131.7 323 140.3 346 139.3C369 138.3 392 127.7 415.2 123C438.3 118.3 461.7 119.7 484.8 115.8C508 112 531 103 554 99.7C577 96.3 600 98.7 623 106.2C646 113.7 669 126.3 692.2 129.3C715.3 132.3 738.7 125.7 761.8 126C785 126.3 808 133.7 831 131.2C854 128.7 877 116.3 888.5 110.2L900 104L900 0L888.5 0C877 0 854 0 831 0C808 0 785 0 761.8 0C738.7 0 715.3 0 692.2 0C669 0 646 0 623 0C600 0 577 0 554 0C531 0 508 0 484.8 0C461.7 0 438.3 0 415.2 0C392 0 369 0 346 0C323 0 300 0 277 0C254 0 231 0 207.8 0C184.7 0 161.3 0 138.2 0C115 0 92 0 69 0C46 0 23 0 11.5 0L0 0Z" fill="#373860"></path><path d="M0 97L11.5 93.2C23 89.3 46 81.7 69 79.8C92 78 115 82 138.2 82C161.3 82 184.7 78 207.8 83.2C231 88.3 254 102.7 277 109C300 115.3 323 113.7 346 106.7C369 99.7 392 87.3 415.2 82.7C438.3 78 461.7 81 484.8 84.5C508 88 531 92 554 90.5C577 89 600 82 623 78.5C646 75 669 75 692.2 80.7C715.3 86.3 738.7 97.7 761.8 104.7C785 111.7 808 114.3 831 112.8C854 111.3 877 105.7 888.5 102.8L900 100L900 0L888.5 0C877 0 854 0 831 0C808 0 785 0 761.8 0C738.7 0 715.3 0 692.2 0C669 0 646 0 623 0C600 0 577 0 554 0C531 0 508 0 484.8 0C461.7 0 438.3 0 415.2 0C392 0 369 0 346 0C323 0 300 0 277 0C254 0 231 0 207.8 0C184.7 0 161.3 0 138.2 0C115 0 92 0 69 0C46 0 23 0 11.5 0L0 0Z" fill="#733c81"></path><path d="M0 78L11.5 73.2C23 68.3 46 58.7 69 54.7C92 50.7 115 52.3 138.2 53C161.3 53.7 184.7 53.3 207.8 56C231 58.7 254 64.3 277 65.3C300 66.3 323 62.7 346 60.3C369 58 392 57 415.2 60.5C438.3 64 461.7 72 484.8 70.5C508 69 531 58 554 52.3C577 46.7 600 46.3 623 51C646 55.7 669 65.3 692.2 71C715.3 76.7 738.7 78.3 761.8 74.3C785 70.3 808 60.7 831 60.2C854 59.7 877 68.3 888.5 72.7L900 77L900 0L888.5 0C877 0 854 0 831 0C808 0 785 0 761.8 0C738.7 0 715.3 0 692.2 0C669 0 646 0 623 0C600 0 577 0 554 0C531 0 508 0 484.8 0C461.7 0 438.3 0 415.2 0C392 0 369 0 346 0C323 0 300 0 277 0C254 0 231 0 207.8 0C184.7 0 161.3 0 138.2 0C115 0 92 0 69 0C46 0 23 0 11.5 0L0 0Z" fill="#bd2b84"></path><path d="M0 37L11.5 34C23 31 46 25 69 23.2C92 21.3 115 23.7 138.2 24.3C161.3 25 184.7 24 207.8 27.7C231 31.3 254 39.7 277 41.2C300 42.7 323 37.3 346 36.2C369 35 392 38 415.2 38.5C438.3 39 461.7 37 484.8 34.7C508 32.3 531 29.7 554 28.7C577 27.7 600 28.3 623 29.3C646 30.3 669 31.7 692.2 32.8C715.3 34 738.7 35 761.8 34.2C785 33.3 808 30.7 831 31.5C854 32.3 877 36.7 888.5 38.8L900 41L900 0L888.5 0C877 0 854 0 831 0C808 0 785 0 761.8 0C738.7 0 715.3 0 692.2 0C669 0 646 0 623 0C600 0 577 0 554 0C531 0 508 0 484.8 0C461.7 0 438.3 0 415.2 0C392 0 369 0 346 0C323 0 300 0 277 0C254 0 231 0 207.8 0C184.7 0 161.3 0 138.2 0C115 0 92 0 69 0C46 0 23 0 11.5 0L0 0Z" fill="#ff0066"></path></svg>